<svg id="drawing" xmlns="http://www.w3.org/2000/svg" version="1.1" xmlns:xlink="http://www.w3.org/1999/xlink" xmlns:svgjs="http://svgjs.com/svgjs" width="984" height="757" viewBox="172 64 984 757"><defs id="SvgjsDefs1020"><marker id="SvgjsMarker1047" markerWidth="16.23606797749979" markerHeight="10.550836550532098" refX="-1" refY="3.8990363547948754" viewBox="-1 -1.3763819204711738 16.23606797749979 10.550836550532098" orient="auto" markerUnits="userSpaceOnUse"><path id="SvgjsPath1048" d="M12 3.8990363547948754L0 7.798072709589751V0Z " stroke="#323232" stroke-width="2" fill="#323232" transform="matrix(1,0,0,1,0,0)"></path></marker><marker id="SvgjsMarker1061" markerWidth="16.23606797749979" markerHeight="10.550836550532098" refX="-1" refY="3.8990363547948754" viewBox="-1 -1.3763819204711738 16.23606797749979 10.550836550532098" orient="auto" markerUnits="userSpaceOnUse"><path id="SvgjsPath1062" d="M12 3.8990363547948754L0 7.798072709589751V0Z " stroke="#323232" stroke-width="2" fill="#323232" transform="matrix(1,0,0,1,0,0)"></path></marker><marker id="SvgjsMarker1073" markerWidth="16.23606797749979" markerHeight="10.550836550532098" refX="-1" refY="3.8990363547948754" viewBox="-1 -1.3763819204711738 16.23606797749979 10.550836550532098" orient="auto" markerUnits="userSpaceOnUse"><path id="SvgjsPath1074" d="M12 3.8990363547948754L0 7.798072709589751V0Z " stroke="#323232" stroke-width="2" fill="#323232" transform="matrix(1,0,0,1,0,0)"></path></marker><marker id="SvgjsMarker1080" markerWidth="16.23606797749979" markerHeight="10.550836550532098" refX="-1" refY="3.8990363547948754" viewBox="-1 -1.3763819204711738 16.23606797749979 10.550836550532098" orient="auto" markerUnits="userSpaceOnUse"><path id="SvgjsPath1081" d="M12 3.8990363547948754L0 7.798072709589751V0Z " stroke="#323232" stroke-width="2" fill="#323232" transform="matrix(1,0,0,1,0,0)"></path></marker><marker id="SvgjsMarker1092" markerWidth="16.23606797749979" markerHeight="10.550836550532098" refX="-1" refY="3.8990363547948754" viewBox="-1 -1.3763819204711738 16.23606797749979 10.550836550532098" orient="auto" markerUnits="userSpaceOnUse"><path id="SvgjsPath1093" d="M12 3.8990363547948754L0 7.798072709589751V0Z " stroke="#323232" stroke-width="2" fill="#323232" transform="matrix(1,0,0,1,0,0)"></path></marker><marker id="SvgjsMarker1099" markerWidth="16.23606797749979" markerHeight="10.550836550532098" refX="-1" refY="3.8990363547948754" viewBox="-1 -1.3763819204711738 16.23606797749979 10.550836550532098" orient="auto" markerUnits="userSpaceOnUse"><path id="SvgjsPath1100" d="M12 3.8990363547948754L0 7.798072709589751V0Z " stroke="#323232" stroke-width="2" fill="#323232" transform="matrix(1,0,0,1,0,0)"></path></marker><marker id="SvgjsMarker1116" markerWidth="16.23606797749979" markerHeight="10.550836550532098" refX="-1" refY="3.8990363547948754" viewBox="-1 -1.3763819204711738 16.23606797749979 10.550836550532098" orient="auto" markerUnits="userSpaceOnUse"><path id="SvgjsPath1117" d="M12 3.8990363547948754L0 7.798072709589751V0Z " stroke="#323232" stroke-width="2" fill="#323232" transform="matrix(1,0,0,1,0,0)"></path></marker><marker id="SvgjsMarker1125" markerWidth="16.23606797749979" markerHeight="10.550836550532098" refX="-1" refY="3.8990363547948754" viewBox="-1 -1.3763819204711738 16.23606797749979 10.550836550532098" orient="auto" markerUnits="userSpaceOnUse"><path id="SvgjsPath1126" d="M12 3.8990363547948754L0 7.798072709589751V0Z " stroke="#323232" stroke-width="2" fill="#323232" transform="matrix(1,0,0,1,0,0)"></path></marker><marker id="SvgjsMarker1132" markerWidth="16.23606797749979" markerHeight="10.550836550532098" refX="-1" refY="3.8990363547948754" viewBox="-1 -1.3763819204711738 16.23606797749979 10.550836550532098" orient="auto" markerUnits="userSpaceOnUse"><path id="SvgjsPath1133" d="M12 3.8990363547948754L0 7.798072709589751V0Z " stroke="#323232" stroke-width="2" fill="#323232" transform="matrix(1,0,0,1,0,0)"></path></marker><marker id="SvgjsMarker1143" markerWidth="16.23606797749979" markerHeight="10.550836550532098" refX="-1" refY="3.8990363547948754" viewBox="-1 -1.3763819204711738 16.23606797749979 10.550836550532098" orient="auto" markerUnits="userSpaceOnUse"><path id="SvgjsPath1144" d="M12 3.8990363547948754L0 7.798072709589751V0Z " stroke="#323232" stroke-width="2" fill="#323232" transform="matrix(1,0,0,1,0,0)"></path></marker><marker id="SvgjsMarker1155" markerWidth="16.23606797749979" markerHeight="10.550836550532098" refX="-1" refY="3.8990363547948754" viewBox="-1 -1.3763819204711738 16.23606797749979 10.550836550532098" orient="auto" markerUnits="userSpaceOnUse"><path id="SvgjsPath1156" d="M12 3.8990363547948754L0 7.798072709589751V0Z " stroke="#323232" stroke-width="2" fill="#323232" transform="matrix(1,0,0,1,0,0)"></path></marker></defs><g id="SvgjsG1021"><path id="SvgjsPath1022" d="M172 64H1156V821H172V64Z " fill-opacity="0" fill="none"></path><g id="SvgjsG1023"><g id="SvgjsG1024" transform="translate(297 152)" opacity="1"><path id="SvgjsPath1025" d="M0 20C0 -6.666666666666667 40 -6.666666666666667 40 20C40 46.666666666666664 0 46.666666666666664 0 20Z " stroke-dasharray="none" stroke-width="0" stroke="#323232" fill="#323232" opacity="1"></path></g><g id="SvgjsG1026" transform="translate(292 693)" opacity="1"><path id="SvgjsPath1027" d="M0 20C0 -6.666666666666667 40 -6.666666666666667 40 20C40 46.666666666666664 0 46.666666666666664 0 20Z " stroke-dasharray="none" stroke="#323232" stroke-width="4" fill="#ffffff" opacity="1"></path><path id="SvgjsPath1028" d="M10 20C10 6.666666666666666 30 6.666666666666666 30 20C30 33.333333333333336 10 33.333333333333336 10 20Z " stroke-dasharray="none" stroke-width="0" stroke="#323232" fill="#323232" opacity="1"></path><path id="SvgjsPath1029" d="M0 20C0 -6.666666666666667 40 -6.666666666666667 40 20C40 46.666666666666664 0 46.666666666666664 0 20Z " stroke-dasharray="none" stroke-width="0" stroke="#323232" fill="none" opacity="1"></path></g><g id="SvgjsG1030" transform="translate(192 84)" opacity="1"><path id="SvgjsPath1031" d="M0 0L250 0L250 717L0 717Z " stroke-dasharray="none" stroke="#323232" stroke-width="2" fill="none" opacity="1"></path><path id="SvgjsPath1032" d="M0 0L250 0L250 40L0 40Z " stroke-dasharray="none" stroke="#323232" stroke-width="2" fill="#ffffff" opacity="1"></path><g id="SvgjsG1033" transform="matrix(1 0 0 1 10 10)" fill="#ffffff"><text id="SvgjsText1034" font-family="微软雅黑,黑体,Arial,SimSun" fill="#000000" font-size="16" font-weight="normal" font-style="normal" text-anchor="middle" text-decoration="blink" x="115" y="14">USER</text></g></g><g id="SvgjsG1035" transform="translate(442 84)" opacity="1"><path id="SvgjsPath1036" d="M0 0L444 0L444 717L0 717Z " stroke-dasharray="none" stroke="#323232" stroke-width="2" fill="none" opacity="1"></path><path id="SvgjsPath1037" d="M0 0L444 0L444 40L0 40Z " stroke-dasharray="none" stroke="#323232" stroke-width="2" fill="#ffffff" opacity="1"></path><g id="SvgjsG1038" transform="matrix(1 0 0 1 10 10)" fill="#ffffff"><text id="SvgjsText1039" font-family="微软雅黑,黑体,Arial,SimSun" fill="#000000" font-size="16" font-weight="normal" font-style="normal" text-anchor="middle" text-decoration="blink" x="212" y="14">CAS Server</text></g></g><g id="SvgjsG1040" transform="translate(267 215)" opacity="1"><path id="SvgjsPath1041" d="M0 18Q0 0 18 0L82 0Q100 0 100 18L100 22Q100 40 82 40L18 40Q0 40 0 22L0 18Z " stroke-dasharray="none" stroke="#323232" stroke-width="2" fill="#ffffff" opacity="1"></path><g id="SvgjsG1042" transform="matrix(1 0 0 1 10 3.75)" fill="#ffffff"><text id="SvgjsText1043" font-family="微软雅黑,黑体,Arial,SimSun" fill="#000000" font-size="13" font-weight="normal" font-style="normal" text-anchor="middle" text-decoration="blink" x="40" y="12">request inde</text><text id="SvgjsText1044" font-family="微软雅黑,黑体,Arial,SimSun" fill="#000000" font-size="13" font-weight="normal" font-style="normal" text-anchor="middle" text-decoration="blink" x="40" y="28.25">x page</text></g></g><g id="SvgjsG1045"><path id="SvgjsPath1046" d="M367 235L449 235L449 235L515.7639320225002 235 " stroke-dasharray="none" stroke="#323232" stroke-width="2" fill="none" marker-end="url(#SvgjsMarker1047)"></path><g id="SvgjsG1049" transform="matrix(1 0 0 1 441.3819660112501 226.875)"><path id="SvgjsPath1050" d="M0 0H131.015625V13H0V0Z " fill="#ffffff" transform="translate(-65.5078125 0)"></path><text id="SvgjsText1051" font-family="Microsoft Yahei,SimSun" fill="#000000" font-size="13" font-weight="normal" font-style="normal" text-anchor="middle" text-decoration="blink" x="0" y="11">redirect to cas server</text></g></g><g id="SvgjsG1052" transform="translate(535 210)" opacity="1"><path id="SvgjsPath1053" d="M0 18Q0 0 18 0L82 0Q100 0 100 18L100 22Q100 40 82 40L18 40Q0 40 0 22L0 18Z " stroke-dasharray="none" stroke="#323232" stroke-width="2" fill="#ffffff" opacity="1"></path><g id="SvgjsG1054" transform="matrix(1 0 0 1 10 3.75)" fill="#ffffff"><text id="SvgjsText1055" font-family="微软雅黑,黑体,Arial,SimSun" fill="#000000" font-size="13" font-weight="normal" font-style="normal" text-anchor="middle" text-decoration="blink" x="40" y="12">check if login</text><text id="SvgjsText1056" font-family="微软雅黑,黑体,Arial,SimSun" fill="#000000" font-size="13" font-weight="normal" font-style="normal" text-anchor="middle" text-decoration="blink" x="40" y="28.25"> valid</text></g></g><g id="SvgjsG1057" transform="translate(644 287.5)" opacity="1"><path id="SvgjsPath1058" d="M0 20L20 0L40 20L20 40L0 20Z " stroke-dasharray="none" stroke="#323232" stroke-width="2" fill="#ffffff" opacity="1"></path></g><g id="SvgjsG1059"><path id="SvgjsPath1060" d="M684 307.5L801.5 307.5L801.5 317L903.7639320225002 317 " stroke-dasharray="none" stroke="#323232" stroke-width="2" fill="none" marker-end="url(#SvgjsMarker1061)"></path><g id="SvgjsG1063" transform="matrix(1 0 0 1 798.6319660112501 299.375)"><path id="SvgjsPath1064" d="M0 0H169.296875V13H0V0Z " fill="#ffffff" transform="translate(-84.6484375 0)"></path><text id="SvgjsText1065" font-family="Microsoft Yahei,SimSun" fill="#000000" font-size="13" font-weight="normal" font-style="normal" text-anchor="middle" text-decoration="blink" x="0" y="11">redirect to app validateion</text></g></g><g id="SvgjsG1066" transform="translate(886 84)" opacity="1"><path id="SvgjsPath1067" d="M0 0L250 0L250 717L0 717Z " stroke-dasharray="none" stroke="#323232" stroke-width="2" fill="none" opacity="1"></path><path id="SvgjsPath1068" d="M0 0L250 0L250 40L0 40Z " stroke-dasharray="none" stroke="#323232" stroke-width="2" fill="#ffffff" opacity="1"></path><g id="SvgjsG1069" transform="matrix(1 0 0 1 10 10)" fill="#ffffff"><text id="SvgjsText1070" font-family="微软雅黑,黑体,Arial,SimSun" fill="#000000" font-size="16" font-weight="normal" font-style="normal" text-anchor="middle" text-decoration="blink" x="115" y="14">app</text></g></g><g id="SvgjsG1071"><path id="SvgjsPath1072" d="M635 230L664 230L664 272.2639320225002 " stroke-dasharray="none" stroke="#323232" stroke-width="2" fill="none" marker-end="url(#SvgjsMarker1073)"></path><g id="SvgjsG1075" transform="matrix(1 0 0 1 664 228.5069660112501)"><path id="SvgjsPath1076" d="M0 0H0V0H0V0Z " fill="#ffffff" transform="translate(0 0)"></path><text id="SvgjsText1077" font-family="Microsoft Yahei,SimSun" fill="#000000" font-size="13" font-weight="normal" font-style="normal" text-anchor="middle" text-decoration="blink" x="0" y="0"></text></g></g><g id="SvgjsG1078"><path id="SvgjsPath1079" d="M317 192L317 203.5L317 203.5L317 204.5 " stroke-dasharray="none" stroke="#323232" stroke-width="2" fill="none" marker-end="url(#SvgjsMarker1080)"></path><g id="SvgjsG1082" transform="matrix(1 0 0 1 317 190.125)"><path id="SvgjsPath1083" d="M0 0H0V0H0V0Z " fill="#ffffff" transform="translate(0 0)"></path><text id="SvgjsText1084" font-family="Microsoft Yahei,SimSun" fill="#000000" font-size="13" font-weight="normal" font-style="normal" text-anchor="middle" text-decoration="blink" x="0" y="0"></text></g></g><g id="SvgjsG1085" transform="translate(270 287)" opacity="1"><path id="SvgjsPath1086" d="M0 18Q0 0 18 0L82 0Q100 0 100 18L100 23Q100 41 82 41L18 41Q0 41 0 23L0 18Z " stroke-dasharray="none" stroke="#323232" stroke-width="2" fill="#ffffff" opacity="1"></path><g id="SvgjsG1087" transform="matrix(1 0 0 1 10 4.25)" fill="#ffffff"><text id="SvgjsText1088" font-family="微软雅黑,黑体,Arial,SimSun" fill="#000000" font-size="13" font-weight="normal" font-style="normal" text-anchor="middle" text-decoration="blink" x="40" y="12">post login fo</text><text id="SvgjsText1089" font-family="微软雅黑,黑体,Arial,SimSun" fill="#000000" font-size="13" font-weight="normal" font-style="normal" text-anchor="middle" text-decoration="blink" x="40" y="28.25">rm</text></g></g><g id="SvgjsG1090"><path id="SvgjsPath1091" d="M644 307.5L507 307.5L507 307.5L385.2360679774998 307.5 " stroke-dasharray="none" stroke="#323232" stroke-width="2" fill="none" marker-end="url(#SvgjsMarker1092)"></path><g id="SvgjsG1094" transform="matrix(1 0 0 1 514.6180339887499 299.375)"><path id="SvgjsPath1095" d="M0 0H98.546875V13H0V0Z " fill="#ffffff" transform="translate(-49.2734375 0)"></path><text id="SvgjsText1096" font-family="Microsoft Yahei,SimSun" fill="#000000" font-size="13" font-weight="normal" font-style="normal" text-anchor="middle" text-decoration="blink" x="0" y="11">return post form</text></g></g><g id="SvgjsG1097"><path id="SvgjsPath1098" d="M320 328L320 358L585 358L585 265.2360679774998 " stroke-dasharray="none" stroke="#323232" stroke-width="2" fill="none" marker-end="url(#SvgjsMarker1099)"></path><g id="SvgjsG1101" transform="matrix(1 0 0 1 483.88196601125014 349.875)"><path id="SvgjsPath1102" d="M0 0H0V0H0V0Z " fill="#ffffff" transform="translate(0 0)"></path><text id="SvgjsText1103" font-family="Microsoft Yahei,SimSun" fill="#000000" font-size="13" font-weight="normal" font-style="normal" text-anchor="middle" text-decoration="blink" x="0" y="0"></text></g></g><g id="SvgjsG1104" transform="translate(919 282)" opacity="1"><path id="SvgjsPath1105" d="M0 18Q0 0 18 0L82 0Q100 0 100 18L100 52Q100 70 82 70L18 70Q0 70 0 52L0 18Z " stroke-dasharray="none" stroke="#323232" stroke-width="2" fill="#ffffff" opacity="1"></path><g id="SvgjsG1106" transform="matrix(1 0 0 1 10 18.75)" fill="#ffffff"><text id="SvgjsText1107" font-family="微软雅黑,黑体,Arial,SimSun" fill="#000000" font-size="13" font-weight="normal" font-style="normal" text-anchor="middle" text-decoration="blink" x="40" y="12">validate ticke</text><text id="SvgjsText1108" font-family="微软雅黑,黑体,Arial,SimSun" fill="#000000" font-size="13" font-weight="normal" font-style="normal" text-anchor="middle" text-decoration="blink" x="40" y="28.25">t</text></g></g><g id="SvgjsG1109" transform="translate(535 394)" opacity="1"><path id="SvgjsPath1110" d="M0 18Q0 0 18 0L82 0Q100 0 100 18L100 52Q100 70 82 70L18 70Q0 70 0 52L0 18Z " stroke-dasharray="none" stroke="#323232" stroke-width="2" fill="#ffffff" opacity="1"></path><g id="SvgjsG1111" transform="matrix(1 0 0 1 10 18.75)" fill="#ffffff"><text id="SvgjsText1112" font-family="微软雅黑,黑体,Arial,SimSun" fill="#000000" font-size="13" font-weight="normal" font-style="normal" text-anchor="middle" text-decoration="blink" x="40" y="12">check if ticke</text><text id="SvgjsText1113" font-family="微软雅黑,黑体,Arial,SimSun" fill="#000000" font-size="13" font-weight="normal" font-style="normal" text-anchor="middle" text-decoration="blink" x="40" y="28.25">t valid</text></g></g><g id="SvgjsG1114"><path id="SvgjsPath1115" d="M969 352L969 429L650.2360679774998 429 " stroke-dasharray="none" stroke="#323232" stroke-width="2" fill="none" marker-end="url(#SvgjsMarker1116)"></path><g id="SvgjsG1118" transform="matrix(1 0 0 1 848.1180339887499 420.875)"><path id="SvgjsPath1119" d="M0 0H0V0H0V0Z " fill="#ffffff" transform="translate(0 0)"></path><text id="SvgjsText1120" font-family="Microsoft Yahei,SimSun" fill="#000000" font-size="13" font-weight="normal" font-style="normal" text-anchor="middle" text-decoration="blink" x="0" y="0"></text></g></g><g id="SvgjsG1121" transform="translate(565 501.5)" opacity="1"><path id="SvgjsPath1122" d="M0 20L20 0L40 20L20 40L0 20Z " stroke-dasharray="none" stroke="#323232" stroke-width="2" fill="#ffffff" opacity="1"></path></g><g id="SvgjsG1123"><path id="SvgjsPath1124" d="M585 464L585 482.75L585 482.75L585 486.2639320225002 " stroke-dasharray="none" stroke="#323232" stroke-width="2" fill="none" marker-end="url(#SvgjsMarker1125)"></path><g id="SvgjsG1127" transform="matrix(1 0 0 1 585 467.00696601125014)"><path id="SvgjsPath1128" d="M0 0H0V0H0V0Z " fill="#ffffff" transform="translate(0 0)"></path><text id="SvgjsText1129" font-family="Microsoft Yahei,SimSun" fill="#000000" font-size="13" font-weight="normal" font-style="normal" text-anchor="middle" text-decoration="blink" x="0" y="0"></text></g></g><g id="SvgjsG1130"><path id="SvgjsPath1131" d="M565 521.5L446.5 521.5L446.5 521.5L343.2360679774998 521.5 " stroke-dasharray="none" stroke="#323232" stroke-width="2" fill="none" marker-end="url(#SvgjsMarker1132)"></path><g id="SvgjsG1134" transform="matrix(1 0 0 1 454.11803398874986 513.375)"><path id="SvgjsPath1135" d="M0 0H69.15625V13H0V0Z " fill="#ffffff" transform="translate(-34.578125 0)"></path><text id="SvgjsText1136" font-family="Microsoft Yahei,SimSun" fill="#000000" font-size="13" font-weight="normal" font-style="normal" text-anchor="middle" text-decoration="blink" x="0" y="11">login failed</text></g></g><g id="SvgjsG1137" transform="translate(292 504)" opacity="1"><path id="SvgjsPath1138" d="M0 20C0 -6.666666666666667 40 -6.666666666666667 40 20C40 46.666666666666664 0 46.666666666666664 0 20Z " stroke-dasharray="none" stroke="#323232" stroke-width="4" fill="#ffffff" opacity="1"></path><path id="SvgjsPath1139" d="M10 20C10 6.666666666666666 30 6.666666666666666 30 20C30 33.333333333333336 10 33.333333333333336 10 20Z " stroke-dasharray="none" stroke-width="0" stroke="#323232" fill="#323232" opacity="1"></path><path id="SvgjsPath1140" d="M0 20C0 -6.666666666666667 40 -6.666666666666667 40 20C40 46.666666666666664 0 46.666666666666664 0 20Z " stroke-dasharray="none" stroke-width="0" stroke="#323232" fill="none" opacity="1"></path></g><g id="SvgjsG1141"><path id="SvgjsPath1142" d="M605 521.5L762 521.5L762 521.5L903.7639320225002 521.5 " stroke-dasharray="none" stroke="#323232" stroke-width="2" fill="none" marker-end="url(#SvgjsMarker1143)"></path><g id="SvgjsG1145" transform="matrix(1 0 0 1 754.3819660112501 513.375)"><path id="SvgjsPath1146" d="M0 0H30.171875V13H0V0Z " fill="#ffffff" transform="translate(-15.0859375 0)"></path><text id="SvgjsText1147" font-family="Microsoft Yahei,SimSun" fill="#000000" font-size="13" font-weight="normal" font-style="normal" text-anchor="middle" text-decoration="blink" x="0" y="11">valid</text></g></g><g id="SvgjsG1148" transform="translate(919 486.5)" opacity="1"><path id="SvgjsPath1149" d="M0 18Q0 0 18 0L82 0Q100 0 100 18L100 52Q100 70 82 70L18 70Q0 70 0 52L0 18Z " stroke-dasharray="none" stroke="#323232" stroke-width="2" fill="#ffffff" opacity="1"></path><g id="SvgjsG1150" transform="matrix(1 0 0 1 10 18.75)" fill="#ffffff"><text id="SvgjsText1151" font-family="微软雅黑,黑体,Arial,SimSun" fill="#000000" font-size="13" font-weight="normal" font-style="normal" text-anchor="middle" text-decoration="blink" x="40" y="12">redirect inde</text><text id="SvgjsText1152" font-family="微软雅黑,黑体,Arial,SimSun" fill="#000000" font-size="13" font-weight="normal" font-style="normal" text-anchor="middle" text-decoration="blink" x="40" y="28.25">x</text></g></g><g id="SvgjsG1153"><path id="SvgjsPath1154" d="M969 556.5L969 713L347.2360679774998 713 " stroke-dasharray="none" stroke="#323232" stroke-width="2" fill="none" marker-end="url(#SvgjsMarker1155)"></path><g id="SvgjsG1157" transform="matrix(1 0 0 1 736.3680339887499 704.875)"><path id="SvgjsPath1158" d="M0 0H0V0H0V0Z " fill="#ffffff" transform="translate(0 0)"></path><text id="SvgjsText1159" font-family="Microsoft Yahei,SimSun" fill="#000000" font-size="13" font-weight="normal" font-style="normal" text-anchor="middle" text-decoration="blink" x="0" y="0"></text></g></g></g></g></svg>