<svg id="drawing" xmlns="http://www.w3.org/2000/svg" version="1.1" xmlns:xlink="http://www.w3.org/1999/xlink" xmlns:svgjs="http://svgjs.com/svgjs" width="984" height="757" viewBox="172 64 984 757"><defs id="SvgjsDefs1001"><marker id="SvgjsMarker1043" markerWidth="16.23606797749979" markerHeight="10.550836550532098" refX="-1" refY="3.8990363547948754" viewBox="-1 -1.3763819204711738 16.23606797749979 10.550836550532098" orient="auto" markerUnits="userSpaceOnUse"><path id="SvgjsPath1044" d="M12 3.8990363547948754L0 7.798072709589751V0Z " stroke="#323232" stroke-width="2" fill="#323232" transform="matrix(1,0,0,1,0,0)"></path></marker><marker id="SvgjsMarker1076" markerWidth="16.23606797749979" markerHeight="10.550836550532098" refX="-1" refY="3.8990363547948754" viewBox="-1 -1.3763819204711738 16.23606797749979 10.550836550532098" orient="auto" markerUnits="userSpaceOnUse"><path id="SvgjsPath1077" d="M12 3.8990363547948754L0 7.798072709589751V0Z " stroke="#323232" stroke-width="2" fill="#323232" transform="matrix(1,0,0,1,0,0)"></path></marker><marker id="SvgjsMarker1083" markerWidth="16.23606797749979" markerHeight="10.550836550532098" refX="-1" refY="3.8990363547948754" viewBox="-1 -1.3763819204711738 16.23606797749979 10.550836550532098" orient="auto" markerUnits="userSpaceOnUse"><path id="SvgjsPath1084" d="M12 3.8990363547948754L0 7.798072709589751V0Z " stroke="#323232" stroke-width="2" fill="#323232" transform="matrix(1,0,0,1,0,0)"></path></marker><marker id="SvgjsMarker1098" markerWidth="16.23606797749979" markerHeight="10.550836550532098" refX="-1" refY="3.8990363547948754" viewBox="-1 -1.3763819204711738 16.23606797749979 10.550836550532098" orient="auto" markerUnits="userSpaceOnUse"><path id="SvgjsPath1099" d="M12 3.8990363547948754L0 7.798072709589751V0Z " stroke="#323232" stroke-width="2" fill="#323232" transform="matrix(1,0,0,1,0,0)"></path></marker><marker id="SvgjsMarker1105" markerWidth="16.23606797749979" markerHeight="10.550836550532098" refX="-1" refY="3.8990363547948754" viewBox="-1 -1.3763819204711738 16.23606797749979 10.550836550532098" orient="auto" markerUnits="userSpaceOnUse"><path id="SvgjsPath1106" d="M12 3.8990363547948754L0 7.798072709589751V0Z " stroke="#323232" stroke-width="2" fill="#323232" transform="matrix(1,0,0,1,0,0)"></path></marker><marker id="SvgjsMarker1118" markerWidth="16.23606797749979" markerHeight="10.550836550532098" refX="-1" refY="3.8990363547948754" viewBox="-1 -1.3763819204711738 16.23606797749979 10.550836550532098" orient="auto" markerUnits="userSpaceOnUse"><path id="SvgjsPath1119" d="M12 3.8990363547948754L0 7.798072709589751V0Z " stroke="#323232" stroke-width="2" fill="#323232" transform="matrix(1,0,0,1,0,0)"></path></marker><marker id="SvgjsMarker1125" markerWidth="16.23606797749979" markerHeight="10.550836550532098" refX="-1" refY="3.8990363547948754" viewBox="-1 -1.3763819204711738 16.23606797749979 10.550836550532098" orient="auto" markerUnits="userSpaceOnUse"><path id="SvgjsPath1126" d="M12 3.8990363547948754L0 7.798072709589751V0Z " stroke="#323232" stroke-width="2" fill="#323232" transform="matrix(1,0,0,1,0,0)"></path></marker><marker id="SvgjsMarker1132" markerWidth="16.23606797749979" markerHeight="10.550836550532098" refX="-1" refY="3.8990363547948754" viewBox="-1 -1.3763819204711738 16.23606797749979 10.550836550532098" orient="auto" markerUnits="userSpaceOnUse"><path id="SvgjsPath1133" d="M12 3.8990363547948754L0 7.798072709589751V0Z " stroke="#323232" stroke-width="2" fill="#323232" transform="matrix(1,0,0,1,0,0)"></path></marker><marker id="SvgjsMarker1139" markerWidth="16.23606797749979" markerHeight="10.550836550532098" refX="-1" refY="3.8990363547948754" viewBox="-1 -1.3763819204711738 16.23606797749979 10.550836550532098" orient="auto" markerUnits="userSpaceOnUse"><path id="SvgjsPath1140" d="M12 3.8990363547948754L0 7.798072709589751V0Z " stroke="#323232" stroke-width="2" fill="#323232" transform="matrix(1,0,0,1,0,0)"></path></marker><marker id="SvgjsMarker1150" markerWidth="16.23606797749979" markerHeight="10.550836550532098" refX="-1" refY="3.8990363547948754" viewBox="-1 -1.3763819204711738 16.23606797749979 10.550836550532098" orient="auto" markerUnits="userSpaceOnUse"><path id="SvgjsPath1151" d="M12 3.8990363547948754L0 7.798072709589751V0Z " stroke="#323232" stroke-width="2" fill="#323232" transform="matrix(1,0,0,1,0,0)"></path></marker><marker id="SvgjsMarker1157" markerWidth="16.23606797749979" markerHeight="10.550836550532098" refX="-1" refY="3.8990363547948754" viewBox="-1 -1.3763819204711738 16.23606797749979 10.550836550532098" orient="auto" markerUnits="userSpaceOnUse"><path id="SvgjsPath1158" d="M12 3.8990363547948754L0 7.798072709589751V0Z " stroke="#323232" stroke-width="2" fill="#323232" transform="matrix(1,0,0,1,0,0)"></path></marker><marker id="SvgjsMarker1164" markerWidth="16.23606797749979" markerHeight="10.550836550532098" refX="-1" refY="3.8990363547948754" viewBox="-1 -1.3763819204711738 16.23606797749979 10.550836550532098" orient="auto" markerUnits="userSpaceOnUse"><path id="SvgjsPath1165" d="M12 3.8990363547948754L0 7.798072709589751V0Z " stroke="#323232" stroke-width="2" fill="#323232" transform="matrix(1,0,0,1,0,0)"></path></marker><marker id="SvgjsMarker1171" markerWidth="16.23606797749979" markerHeight="10.550836550532098" refX="-1" refY="3.8990363547948754" viewBox="-1 -1.3763819204711738 16.23606797749979 10.550836550532098" orient="auto" markerUnits="userSpaceOnUse"><path id="SvgjsPath1172" d="M12 3.8990363547948754L0 7.798072709589751V0Z " stroke="#323232" stroke-width="2" fill="#323232" transform="matrix(1,0,0,1,0,0)"></path></marker><marker id="SvgjsMarker1178" markerWidth="16.23606797749979" markerHeight="10.550836550532098" refX="-1" refY="3.8990363547948754" viewBox="-1 -1.3763819204711738 16.23606797749979 10.550836550532098" orient="auto" markerUnits="userSpaceOnUse"><path id="SvgjsPath1179" d="M12 3.8990363547948754L0 7.798072709589751V0Z " stroke="#323232" stroke-width="2" fill="#323232" transform="matrix(1,0,0,1,0,0)"></path></marker><marker id="SvgjsMarker1185" markerWidth="16.23606797749979" markerHeight="10.550836550532098" refX="-1" refY="3.8990363547948754" viewBox="-1 -1.3763819204711738 16.23606797749979 10.550836550532098" orient="auto" markerUnits="userSpaceOnUse"><path id="SvgjsPath1186" d="M12 3.8990363547948754L0 7.798072709589751V0Z " stroke="#323232" stroke-width="2" fill="#323232" transform="matrix(1,0,0,1,0,0)"></path></marker><marker id="SvgjsMarker1192" markerWidth="16.23606797749979" markerHeight="10.550836550532098" refX="-1" refY="3.8990363547948754" viewBox="-1 -1.3763819204711738 16.23606797749979 10.550836550532098" orient="auto" markerUnits="userSpaceOnUse"><path id="SvgjsPath1193" d="M12 3.8990363547948754L0 7.798072709589751V0Z " stroke="#323232" stroke-width="2" fill="#323232" transform="matrix(1,0,0,1,0,0)"></path></marker></defs><g id="SvgjsG1007"><path id="SvgjsPath1008" d="M172 64H1156V821H172V64Z " fill-opacity="0" fill="none"></path><g id="SvgjsG1009"><g id="SvgjsG1010" transform="translate(297 152)" opacity="1"><path id="SvgjsPath1011" d="M0 20C0 -6.666666666666667 40 -6.666666666666667 40 20C40 46.666666666666664 0 46.666666666666664 0 20Z " stroke-dasharray="none" stroke-width="0" stroke="#323232" fill="#323232" opacity="1"></path></g><g id="SvgjsG1012" transform="translate(292 692)" opacity="1"><path id="SvgjsPath1013" d="M0 20C0 -6.666666666666667 40 -6.666666666666667 40 20C40 46.666666666666664 0 46.666666666666664 0 20Z " stroke-dasharray="none" stroke="#323232" stroke-width="4" fill="#ffffff" opacity="1"></path><path id="SvgjsPath1014" d="M10 20C10 6.666666666666666 30 6.666666666666666 30 20C30 33.333333333333336 10 33.333333333333336 10 20Z " stroke-dasharray="none" stroke-width="0" stroke="#323232" fill="#323232" opacity="1"></path><path id="SvgjsPath1015" d="M0 20C0 -6.666666666666667 40 -6.666666666666667 40 20C40 46.666666666666664 0 46.666666666666664 0 20Z " stroke-dasharray="none" stroke-width="0" stroke="#323232" fill="none" opacity="1"></path></g><g id="SvgjsG1016" transform="translate(192 84)" opacity="1"><path id="SvgjsPath1017" d="M0 0L250 0L250 717L0 717Z " stroke-dasharray="none" stroke="#323232" stroke-width="2" fill="none" opacity="1"></path><path id="SvgjsPath1018" d="M0 0L250 0L250 40L0 40Z " stroke-dasharray="none" stroke="#323232" stroke-width="2" fill="#ffffff" opacity="1"></path><g id="SvgjsG1019" transform="matrix(1 0 0 1 10 10)" fill="#ffffff"><text id="SvgjsText1020" font-family="微软雅黑,黑体,Arial,SimSun" fill="#000000" font-size="16" font-weight="normal" font-style="normal" text-anchor="middle" text-decoration="blink" x="115" y="14">Data Manager</text></g></g><g id="SvgjsG1021" transform="translate(442 84)" opacity="1"><path id="SvgjsPath1022" d="M0 0L444 0L444 717L0 717Z " stroke-dasharray="none" stroke="#323232" stroke-width="2" fill="none" opacity="1"></path><path id="SvgjsPath1023" d="M0 0L444 0L444 40L0 40Z " stroke-dasharray="none" stroke="#323232" stroke-width="2" fill="#ffffff" opacity="1"></path><g id="SvgjsG1024" transform="matrix(1 0 0 1 10 10)" fill="#ffffff"><text id="SvgjsText1025" font-family="微软雅黑,黑体,Arial,SimSun" fill="#000000" font-size="16" font-weight="normal" font-style="normal" text-anchor="middle" text-decoration="blink" x="212" y="14">Data Importer</text></g></g><g id="SvgjsG1026" transform="translate(257 232)" opacity="1"><path id="SvgjsPath1027" d="M0 18Q0 0 18 0L102 0Q120 0 120 18L120 16Q120 34 102 34L18 34Q0 34 0 16L0 18Z " stroke-dasharray="none" stroke="#323232" stroke-width="2" fill="#ffffff" opacity="1"></path><g id="SvgjsG1028" transform="matrix(1 0 0 1 10 0.75)" fill="#ffffff"><text id="SvgjsText1029" font-family="微软雅黑,黑体,Arial,SimSun" fill="#000000" font-size="13" font-weight="normal" font-style="normal" text-anchor="middle" text-decoration="blink" x="50" y="12">configure data in</text><text id="SvgjsText1030" font-family="微软雅黑,黑体,Arial,SimSun" fill="#000000" font-size="13" font-weight="normal" font-style="normal" text-anchor="middle" text-decoration="blink" x="50" y="28.25">terface</text></g></g><g id="SvgjsG1031" transform="translate(614 232)" opacity="1"><path id="SvgjsPath1032" d="M0 18Q0 0 18 0L82 0Q100 0 100 18L100 22Q100 40 82 40L18 40Q0 40 0 22L0 18Z " stroke-dasharray="none" stroke="#323232" stroke-width="2" fill="#ffffff" opacity="1"></path><g id="SvgjsG1033" transform="matrix(1 0 0 1 10 3.75)" fill="#ffffff"><text id="SvgjsText1034" font-family="微软雅黑,黑体,Arial,SimSun" fill="#000000" font-size="13" font-weight="normal" font-style="normal" text-anchor="middle" text-decoration="blink" x="40" y="12">start import e</text><text id="SvgjsText1035" font-family="微软雅黑,黑体,Arial,SimSun" fill="#000000" font-size="13" font-weight="normal" font-style="normal" text-anchor="middle" text-decoration="blink" x="40" y="28.25">ngine</text></g></g><g id="SvgjsG1036" transform="translate(886 84)" opacity="1"><path id="SvgjsPath1037" d="M0 0L250 0L250 717L0 717Z " stroke-dasharray="none" stroke="#323232" stroke-width="2" fill="none" opacity="1"></path><path id="SvgjsPath1038" d="M0 0L250 0L250 40L0 40Z " stroke-dasharray="none" stroke="#323232" stroke-width="2" fill="#ffffff" opacity="1"></path><g id="SvgjsG1039" transform="matrix(1 0 0 1 10 10)" fill="#ffffff"><text id="SvgjsText1040" font-family="微软雅黑,黑体,Arial,SimSun" fill="#000000" font-size="16" font-weight="normal" font-style="normal" text-anchor="middle" text-decoration="blink" x="115" y="14">Database</text></g></g><g id="SvgjsG1041"><path id="SvgjsPath1042" d="M317 192L317 212L317 212L317 216.7639320225002 " stroke-dasharray="none" stroke="#323232" stroke-width="2" fill="none" marker-end="url(#SvgjsMarker1043)"></path><g id="SvgjsG1045" transform="matrix(1 0 0 1 317 196.25696601125009)"><path id="SvgjsPath1046" d="M0 0H0V0H0V0Z " fill="#ffffff" transform="translate(0 0)"></path><text id="SvgjsText1047" font-family="Microsoft Yahei,SimSun" fill="#000000" font-size="13" font-weight="normal" font-style="normal" text-anchor="middle" text-decoration="blink" x="0" y="0"></text></g></g><g id="SvgjsG1048" transform="translate(257 300)" opacity="1"><path id="SvgjsPath1049" d="M0 18Q0 0 18 0L102 0Q120 0 120 18L120 16Q120 34 102 34L18 34Q0 34 0 16L0 18Z " stroke-dasharray="none" stroke="#323232" stroke-width="2" fill="#ffffff" opacity="1"></path><g id="SvgjsG1050" transform="matrix(1 0 0 1 10 0.75)" fill="#ffffff"><text id="SvgjsText1051" font-family="微软雅黑,黑体,Arial,SimSun" fill="#000000" font-size="13" font-weight="normal" font-style="normal" text-anchor="middle" text-decoration="blink" x="50" y="12">configure data im</text><text id="SvgjsText1052" font-family="微软雅黑,黑体,Arial,SimSun" fill="#000000" font-size="13" font-weight="normal" font-style="normal" text-anchor="middle" text-decoration="blink" x="50" y="28.25">porter</text></g></g><g id="SvgjsG1053" transform="translate(254 361)" opacity="1"><path id="SvgjsPath1054" d="M0 18Q0 0 18 0L108 0Q126 0 126 18L126 19Q126 37 108 37L18 37Q0 37 0 19L0 18Z " stroke-dasharray="none" stroke="#323232" stroke-width="2" fill="#ffffff" opacity="1"></path><g id="SvgjsG1055" transform="matrix(1 0 0 1 10 2.25)" fill="#ffffff"><text id="SvgjsText1056" font-family="微软雅黑,黑体,Arial,SimSun" fill="#000000" font-size="13" font-weight="normal" font-style="normal" text-anchor="middle" text-decoration="blink" x="53" y="12">start data import</text><text id="SvgjsText1057" font-family="微软雅黑,黑体,Arial,SimSun" fill="#000000" font-size="13" font-weight="normal" font-style="normal" text-anchor="middle" text-decoration="blink" x="53" y="28.25">er</text></g></g><g id="SvgjsG1058" transform="translate(614 303)" opacity="1"><path id="SvgjsPath1059" d="M0 18Q0 0 18 0L82 0Q100 0 100 18L100 22Q100 40 82 40L18 40Q0 40 0 22L0 18Z " stroke-dasharray="none" stroke="#323232" stroke-width="2" fill="#ffffff" opacity="1"></path><g id="SvgjsG1060" transform="matrix(1 0 0 1 10 3.75)" fill="#ffffff"><text id="SvgjsText1061" font-family="微软雅黑,黑体,Arial,SimSun" fill="#000000" font-size="13" font-weight="normal" font-style="normal" text-anchor="middle" text-decoration="blink" x="40" y="12">find engine c</text><text id="SvgjsText1062" font-family="微软雅黑,黑体,Arial,SimSun" fill="#000000" font-size="13" font-weight="normal" font-style="normal" text-anchor="middle" text-decoration="blink" x="40" y="28.25">onfig</text></g></g><g id="SvgjsG1063" transform="translate(614 377)" opacity="1"><path id="SvgjsPath1064" d="M0 18Q0 0 18 0L82 0Q100 0 100 18L100 22Q100 40 82 40L18 40Q0 40 0 22L0 18Z " stroke-dasharray="none" stroke="#323232" stroke-width="2" fill="#ffffff" opacity="1"></path><g id="SvgjsG1065" transform="matrix(1 0 0 1 10 3.75)" fill="#ffffff"><text id="SvgjsText1066" font-family="微软雅黑,黑体,Arial,SimSun" fill="#000000" font-size="13" font-weight="normal" font-style="normal" text-anchor="middle" text-decoration="blink" x="40" y="12">find importer</text><text id="SvgjsText1067" font-family="微软雅黑,黑体,Arial,SimSun" fill="#000000" font-size="13" font-weight="normal" font-style="normal" text-anchor="middle" text-decoration="blink" x="40" y="28.25"> config</text></g></g><g id="SvgjsG1068" transform="translate(503 509)" opacity="1"><path id="SvgjsPath1069" d="M0 18Q0 0 18 0L82 0Q100 0 100 18L100 22Q100 40 82 40L18 40Q0 40 0 22L0 18Z " stroke-dasharray="none" stroke="#323232" stroke-width="2" fill="#ffffff" opacity="1"></path><g id="SvgjsG1070" transform="matrix(1 0 0 1 10 11.875)" fill="#ffffff"><text id="SvgjsText1071" font-family="微软雅黑,黑体,Arial,SimSun" fill="#000000" font-size="13" font-weight="normal" font-style="normal" text-anchor="middle" text-decoration="blink" x="40" y="12">read TA</text></g></g><g id="SvgjsG1072" transform="translate(610 459)" opacity="1"><path id="SvgjsPath1073" d="M0 4Q0 0 4 0L110 0Q114 0 114 4L114 16Q114 20 110 20L4 20Q0 20 0 16Z " stroke-dasharray="none" stroke-width="0" stroke="#323232" fill="#323232" opacity="1"></path></g><g id="SvgjsG1074"><path id="SvgjsPath1075" d="M664 417L664 438L664.15 438L664.15 443.7639320225002 " stroke-dasharray="none" stroke="#323232" stroke-width="2" fill="none" marker-end="url(#SvgjsMarker1076)"></path><g id="SvgjsG1078" transform="matrix(1 0 0 1 664 422.3319660112501)"><path id="SvgjsPath1079" d="M0 0H0V0H0V0Z " fill="#ffffff" transform="translate(0 0)"></path><text id="SvgjsText1080" font-family="Microsoft Yahei,SimSun" fill="#000000" font-size="13" font-weight="normal" font-style="normal" text-anchor="middle" text-decoration="blink" x="0" y="0"></text></g></g><g id="SvgjsG1081"><path id="SvgjsPath1082" d="M610.9391548895615 467.26146722824296L553 467.26146722824296L553 493.7639320225002 " stroke-dasharray="none" stroke="#323232" stroke-width="2" fill="none" marker-end="url(#SvgjsMarker1083)"></path><g id="SvgjsG1085" transform="matrix(1 0 0 1 568.7183450476521 459.13646722824296)"><path id="SvgjsPath1086" d="M0 0H0V0H0V0Z " fill="#ffffff" transform="translate(0 0)"></path><text id="SvgjsText1087" font-family="Microsoft Yahei,SimSun" fill="#000000" font-size="13" font-weight="normal" font-style="normal" text-anchor="middle" text-decoration="blink" x="0" y="0"></text></g></g><g id="SvgjsG1088" transform="translate(617 509)" opacity="1"><path id="SvgjsPath1089" d="M0 18Q0 0 18 0L82 0Q100 0 100 18L100 22Q100 40 82 40L18 40Q0 40 0 22L0 18Z " stroke-dasharray="none" stroke="#323232" stroke-width="2" fill="#ffffff" opacity="1"></path><g id="SvgjsG1090" transform="matrix(1 0 0 1 10 11.875)" fill="#ffffff"><text id="SvgjsText1091" font-family="微软雅黑,黑体,Arial,SimSun" fill="#000000" font-size="13" font-weight="normal" font-style="normal" text-anchor="middle" text-decoration="blink" x="40" y="12">read DBF</text></g></g><g id="SvgjsG1092" transform="translate(739 509)" opacity="1"><path id="SvgjsPath1093" d="M0 18Q0 0 18 0L82 0Q100 0 100 18L100 22Q100 40 82 40L18 40Q0 40 0 22L0 18Z " stroke-dasharray="none" stroke="#323232" stroke-width="2" fill="#ffffff" opacity="1"></path><g id="SvgjsG1094" transform="matrix(1 0 0 1 10 11.875)" fill="#ffffff"><text id="SvgjsText1095" font-family="微软雅黑,黑体,Arial,SimSun" fill="#000000" font-size="13" font-weight="normal" font-style="normal" text-anchor="middle" text-decoration="blink" x="40" y="12">read txt</text></g></g><g id="SvgjsG1096"><path id="SvgjsPath1097" d="M666.05 479L666.05 494L667 494L667 495 " stroke-dasharray="none" stroke="#323232" stroke-width="2" fill="none" marker-end="url(#SvgjsMarker1098)"></path><g id="SvgjsG1100" transform="matrix(1 0 0 1 666.05 479.35)"><path id="SvgjsPath1101" d="M0 0H0V0H0V0Z " fill="#ffffff" transform="translate(0 0)"></path><text id="SvgjsText1102" font-family="Microsoft Yahei,SimSun" fill="#000000" font-size="13" font-weight="normal" font-style="normal" text-anchor="middle" text-decoration="blink" x="0" y="0"></text></g></g><g id="SvgjsG1103"><path id="SvgjsPath1104" d="M724 469L789 469L789 493.7639320225002 " stroke-dasharray="none" stroke="#323232" stroke-width="2" fill="none" marker-end="url(#SvgjsMarker1105)"></path><g id="SvgjsG1107" transform="matrix(1 0 0 1 768.8819660112501 460.875)"><path id="SvgjsPath1108" d="M0 0H0V0H0V0Z " fill="#ffffff" transform="translate(0 0)"></path><text id="SvgjsText1109" font-family="Microsoft Yahei,SimSun" fill="#000000" font-size="13" font-weight="normal" font-style="normal" text-anchor="middle" text-decoration="blink" x="0" y="0"></text></g></g><g id="SvgjsG1110" transform="translate(617 581)" opacity="1"><path id="SvgjsPath1111" d="M0 4Q0 0 4 0L116 0Q120 0 120 4L120 16Q120 20 116 20L4 20Q0 20 0 16Z " stroke-dasharray="none" stroke-width="0" stroke="#323232" fill="#323232" opacity="1"></path></g><g id="SvgjsG1112" transform="translate(617 630)" opacity="1"><path id="SvgjsPath1113" d="M0 18Q0 0 18 0L82 0Q100 0 100 18L100 22Q100 40 82 40L18 40Q0 40 0 22L0 18Z " stroke-dasharray="none" stroke="#323232" stroke-width="2" fill="#ffffff" opacity="1"></path><g id="SvgjsG1114" transform="matrix(1 0 0 1 10 11.875)" fill="#ffffff"><text id="SvgjsText1115" font-family="微软雅黑,黑体,Arial,SimSun" fill="#000000" font-size="13" font-weight="normal" font-style="normal" text-anchor="middle" text-decoration="blink" x="40" y="12">format data</text></g></g><g id="SvgjsG1116"><path id="SvgjsPath1117" d="M553 549L553 589L604.7639320225002 589 " stroke-dasharray="none" stroke="#323232" stroke-width="2" fill="none" marker-end="url(#SvgjsMarker1118)"></path><g id="SvgjsG1120" transform="matrix(1 0 0 1 558.8819660112501 580.875)"><path id="SvgjsPath1121" d="M0 0H0V0H0V0Z " fill="#ffffff" transform="translate(0 0)"></path><text id="SvgjsText1122" font-family="Microsoft Yahei,SimSun" fill="#000000" font-size="13" font-weight="normal" font-style="normal" text-anchor="middle" text-decoration="blink" x="0" y="0"></text></g></g><g id="SvgjsG1123"><path id="SvgjsPath1124" d="M667 549L667 564L667 564L667 565 " stroke-dasharray="none" stroke="#323232" stroke-width="2" fill="none" marker-end="url(#SvgjsMarker1125)"></path><g id="SvgjsG1127" transform="matrix(1 0 0 1 667 548.875)"><path id="SvgjsPath1128" d="M0 0H0V0H0V0Z " fill="#ffffff" transform="translate(0 0)"></path><text id="SvgjsText1129" font-family="Microsoft Yahei,SimSun" fill="#000000" font-size="13" font-weight="normal" font-style="normal" text-anchor="middle" text-decoration="blink" x="0" y="0"></text></g></g><g id="SvgjsG1130"><path id="SvgjsPath1131" d="M789 549L789 591L752.2360679774998 591 " stroke-dasharray="none" stroke="#323232" stroke-width="2" fill="none" marker-end="url(#SvgjsMarker1132)"></path><g id="SvgjsG1134" transform="matrix(1 0 0 1 789 580.2569660112501)"><path id="SvgjsPath1135" d="M0 0H0V0H0V0Z " fill="#ffffff" transform="translate(0 0)"></path><text id="SvgjsText1136" font-family="Microsoft Yahei,SimSun" fill="#000000" font-size="13" font-weight="normal" font-style="normal" text-anchor="middle" text-decoration="blink" x="0" y="0"></text></g></g><g id="SvgjsG1137"><path id="SvgjsPath1138" d="M667 601L667 615.5L667 615.5L667 616.5 " stroke-dasharray="none" stroke="#323232" stroke-width="2" fill="none" marker-end="url(#SvgjsMarker1139)"></path><g id="SvgjsG1141" transform="matrix(1 0 0 1 667 600.625)"><path id="SvgjsPath1142" d="M0 0H0V0H0V0Z " fill="#ffffff" transform="translate(0 0)"></path><text id="SvgjsText1143" font-family="Microsoft Yahei,SimSun" fill="#000000" font-size="13" font-weight="normal" font-style="normal" text-anchor="middle" text-decoration="blink" x="0" y="0"></text></g></g><g id="SvgjsG1144" transform="translate(938.5 575)" opacity="1"><path id="SvgjsPath1145" d="M0 18Q0 0 18 0L127 0Q145 0 145 18L145 27Q145 45 127 45L18 45Q0 45 0 27L0 18Z " stroke-dasharray="none" stroke="#323232" stroke-width="2" fill="#ffffff" opacity="1"></path><g id="SvgjsG1146" transform="matrix(1 0 0 1 10 14.375)" fill="#ffffff"><text id="SvgjsText1147" font-family="微软雅黑,黑体,Arial,SimSun" fill="#000000" font-size="13" font-weight="normal" font-style="normal" text-anchor="middle" text-decoration="blink" x="62.5" y="12">import to database</text></g></g><g id="SvgjsG1148"><path id="SvgjsPath1149" d="M717 650L827.75 650L827.75 597.5L923.2639320225002 597.5 " stroke-dasharray="none" stroke="#323232" stroke-width="2" fill="none" marker-end="url(#SvgjsMarker1150)"></path><g id="SvgjsG1152" transform="matrix(1 0 0 1 827.75 623.2430339887499)"><path id="SvgjsPath1153" d="M0 0H0V0H0V0Z " fill="#ffffff" transform="translate(0 0)"></path><text id="SvgjsText1154" font-family="Microsoft Yahei,SimSun" fill="#000000" font-size="13" font-weight="normal" font-style="normal" text-anchor="middle" text-decoration="blink" x="0" y="0"></text></g></g><g id="SvgjsG1155"><path id="SvgjsPath1156" d="M1011 620L1011 712L347.2360679774998 712 " stroke-dasharray="none" stroke="#323232" stroke-width="2" fill="none" marker-end="url(#SvgjsMarker1157)"></path><g id="SvgjsG1159" transform="matrix(1 0 0 1 725.1180339887499 703.875)"><path id="SvgjsPath1160" d="M0 0H0V0H0V0Z " fill="#ffffff" transform="translate(0 0)"></path><text id="SvgjsText1161" font-family="Microsoft Yahei,SimSun" fill="#000000" font-size="13" font-weight="normal" font-style="normal" text-anchor="middle" text-decoration="blink" x="0" y="0"></text></g></g><g id="SvgjsG1162"><path id="SvgjsPath1163" d="M317 266L317 283L317 283L317 284.7639320225002 " stroke-dasharray="none" stroke="#323232" stroke-width="2" fill="none" marker-end="url(#SvgjsMarker1164)"></path><g id="SvgjsG1166" transform="matrix(1 0 0 1 317 267.25696601125014)"><path id="SvgjsPath1167" d="M0 0H0V0H0V0Z " fill="#ffffff" transform="translate(0 0)"></path><text id="SvgjsText1168" font-family="Microsoft Yahei,SimSun" fill="#000000" font-size="13" font-weight="normal" font-style="normal" text-anchor="middle" text-decoration="blink" x="0" y="0"></text></g></g><g id="SvgjsG1169"><path id="SvgjsPath1170" d="M317 334L317 347.5L317 347.5L317 348.5 " stroke-dasharray="none" stroke="#323232" stroke-width="2" fill="none" marker-end="url(#SvgjsMarker1171)"></path><g id="SvgjsG1173" transform="matrix(1 0 0 1 317 333.125)"><path id="SvgjsPath1174" d="M0 0H0V0H0V0Z " fill="#ffffff" transform="translate(0 0)"></path><text id="SvgjsText1175" font-family="Microsoft Yahei,SimSun" fill="#000000" font-size="13" font-weight="normal" font-style="normal" text-anchor="middle" text-decoration="blink" x="0" y="0"></text></g></g><g id="SvgjsG1176"><path id="SvgjsPath1177" d="M380 379.5L497 379.5L497 252L598.7639320225002 252 " stroke-dasharray="none" stroke="#323232" stroke-width="2" fill="none" marker-end="url(#SvgjsMarker1178)"></path><g id="SvgjsG1180" transform="matrix(1 0 0 1 497 315.2430339887499)"><path id="SvgjsPath1181" d="M0 0H0V0H0V0Z " fill="#ffffff" transform="translate(0 0)"></path><text id="SvgjsText1182" font-family="Microsoft Yahei,SimSun" fill="#000000" font-size="13" font-weight="normal" font-style="normal" text-anchor="middle" text-decoration="blink" x="0" y="0"></text></g></g><g id="SvgjsG1183"><path id="SvgjsPath1184" d="M664 272L664 287.5L664 287.5L664 287.7639320225002 " stroke-dasharray="none" stroke="#323232" stroke-width="2" fill="none" marker-end="url(#SvgjsMarker1185)"></path><g id="SvgjsG1187" transform="matrix(1 0 0 1 664 271.75696601125014)"><path id="SvgjsPath1188" d="M0 0H0V0H0V0Z " fill="#ffffff" transform="translate(0 0)"></path><text id="SvgjsText1189" font-family="Microsoft Yahei,SimSun" fill="#000000" font-size="13" font-weight="normal" font-style="normal" text-anchor="middle" text-decoration="blink" x="0" y="0"></text></g></g><g id="SvgjsG1190"><path id="SvgjsPath1191" d="M664 343L664 360L664 360L664 361.7639320225002 " stroke-dasharray="none" stroke="#323232" stroke-width="2" fill="none" marker-end="url(#SvgjsMarker1192)"></path><g id="SvgjsG1194" transform="matrix(1 0 0 1 664 344.25696601125014)"><path id="SvgjsPath1195" d="M0 0H0V0H0V0Z " fill="#ffffff" transform="translate(0 0)"></path><text id="SvgjsText1196" font-family="Microsoft Yahei,SimSun" fill="#000000" font-size="13" font-weight="normal" font-style="normal" text-anchor="middle" text-decoration="blink" x="0" y="0"></text></g></g></g></g></svg>